<mxfile host="Electron" agent="Mozilla/5.0 (Macintosh; Intel Mac OS X 10_15_7) AppleWebKit/537.36 (KHTML, like Gecko) draw.io/26.0.9 Chrome/128.0.6613.186 Electron/32.2.5 Safari/537.36" version="26.0.9">
  <diagram name="Page-1" id="-6R0SppevXwrggG_Nj6A">
    <mxGraphModel dx="1632" dy="3534" grid="0" gridSize="10" guides="1" tooltips="1" connect="1" arrows="1" fold="1" page="1" pageScale="1" pageWidth="1654" pageHeight="1169" math="0" shadow="0">
      <root>
        <mxCell id="0" />
        <mxCell id="1" parent="0" />
        <mxCell id="mYuxlSG8NZRimMG9Fdhw-2" value="VPC" style="sketch=0;outlineConnect=0;gradientColor=none;html=1;whiteSpace=wrap;fontSize=12;fontStyle=0;shape=mxgraph.aws4.group;grIcon=mxgraph.aws4.group_vpc;strokeColor=#879196;fillColor=none;verticalAlign=top;align=left;spacingLeft=30;fontColor=#879196;dashed=0;" parent="1" vertex="1">
          <mxGeometry x="480" y="-2057" width="890" height="698" as="geometry" />
        </mxCell>
        <mxCell id="mYuxlSG8NZRimMG9Fdhw-7" value="Availability zone" style="sketch=0;outlineConnect=0;html=1;whiteSpace=wrap;fontSize=12;fontStyle=0;shape=mxgraph.aws4.group;grIcon=mxgraph.aws4.group_availability_zone;strokeColor=#666666;fillColor=#f5f5f5;verticalAlign=top;align=left;spacingLeft=30;fontColor=#333333;dashed=1;" parent="1" vertex="1">
          <mxGeometry x="554" y="-2019" width="806" height="220" as="geometry" />
        </mxCell>
        <mxCell id="mYuxlSG8NZRimMG9Fdhw-8" value="Availability zone" style="sketch=0;outlineConnect=0;html=1;whiteSpace=wrap;fontSize=12;fontStyle=0;shape=mxgraph.aws4.group;grIcon=mxgraph.aws4.group_availability_zone;strokeColor=#666666;fillColor=#f5f5f5;verticalAlign=top;align=left;spacingLeft=30;fontColor=#333333;dashed=1;" parent="1" vertex="1">
          <mxGeometry x="554" y="-1600" width="806" height="210" as="geometry" />
        </mxCell>
        <mxCell id="mYuxlSG8NZRimMG9Fdhw-1" value="AWS Account" style="points=[[0,0],[0.25,0],[0.5,0],[0.75,0],[1,0],[1,0.25],[1,0.5],[1,0.75],[1,1],[0.75,1],[0.5,1],[0.25,1],[0,1],[0,0.75],[0,0.5],[0,0.25]];outlineConnect=0;gradientColor=none;html=1;whiteSpace=wrap;fontSize=12;fontStyle=0;container=0;pointerEvents=0;collapsible=0;recursiveResize=0;shape=mxgraph.aws4.group;grIcon=mxgraph.aws4.group_account;strokeColor=#CD2264;fillColor=none;verticalAlign=top;align=left;spacingLeft=30;fontColor=#CD2264;dashed=0;" parent="1" vertex="1">
          <mxGeometry x="167" y="-2233" width="1323" height="1030" as="geometry" />
        </mxCell>
        <mxCell id="mYuxlSG8NZRimMG9Fdhw-57" style="edgeStyle=orthogonalEdgeStyle;rounded=0;orthogonalLoop=1;jettySize=auto;html=1;" parent="1" source="mYuxlSG8NZRimMG9Fdhw-28" edge="1">
          <mxGeometry relative="1" as="geometry">
            <mxPoint x="1210" y="-1703" as="targetPoint" />
          </mxGeometry>
        </mxCell>
        <mxCell id="mYuxlSG8NZRimMG9Fdhw-58" style="edgeStyle=orthogonalEdgeStyle;rounded=0;orthogonalLoop=1;jettySize=auto;html=1;" parent="1" source="mYuxlSG8NZRimMG9Fdhw-28" edge="1">
          <mxGeometry relative="1" as="geometry">
            <mxPoint x="1210" y="-1703" as="targetPoint" />
          </mxGeometry>
        </mxCell>
        <mxCell id="mYuxlSG8NZRimMG9Fdhw-28" value="ECS&lt;div&gt;Application Content&lt;/div&gt;" style="sketch=0;points=[[0,0,0],[0.25,0,0],[0.5,0,0],[0.75,0,0],[1,0,0],[0,1,0],[0.25,1,0],[0.5,1,0],[0.75,1,0],[1,1,0],[0,0.25,0],[0,0.5,0],[0,0.75,0],[1,0.25,0],[1,0.5,0],[1,0.75,0]];outlineConnect=0;fontColor=#232F3E;fillColor=#ED7100;strokeColor=#ffffff;dashed=0;verticalLabelPosition=bottom;verticalAlign=top;align=center;html=1;fontSize=12;fontStyle=0;aspect=fixed;shape=mxgraph.aws4.resourceIcon;resIcon=mxgraph.aws4.ecs;" parent="1" vertex="1">
          <mxGeometry x="991" y="-1741" width="78" height="78" as="geometry" />
        </mxCell>
        <mxCell id="mYuxlSG8NZRimMG9Fdhw-29" value="Fargate Task" style="sketch=0;points=[[0,0,0],[0.25,0,0],[0.5,0,0],[0.75,0,0],[1,0,0],[0,1,0],[0.25,1,0],[0.5,1,0],[0.75,1,0],[1,1,0],[0,0.25,0],[0,0.5,0],[0,0.75,0],[1,0.25,0],[1,0.5,0],[1,0.75,0]];outlineConnect=0;fontColor=#232F3E;fillColor=#ED7100;strokeColor=#ffffff;dashed=0;verticalLabelPosition=bottom;verticalAlign=top;align=center;html=1;fontSize=12;fontStyle=0;aspect=fixed;shape=mxgraph.aws4.resourceIcon;resIcon=mxgraph.aws4.fargate;" parent="1" vertex="1">
          <mxGeometry x="991" y="-1938" width="78" height="78" as="geometry" />
        </mxCell>
        <mxCell id="mYuxlSG8NZRimMG9Fdhw-30" value="Fargate Task" style="sketch=0;points=[[0,0,0],[0.25,0,0],[0.5,0,0],[0.75,0,0],[1,0,0],[0,1,0],[0.25,1,0],[0.5,1,0],[0.75,1,0],[1,1,0],[0,0.25,0],[0,0.5,0],[0,0.75,0],[1,0.25,0],[1,0.5,0],[1,0.75,0]];outlineConnect=0;fontColor=#232F3E;fillColor=#ED7100;strokeColor=#ffffff;dashed=0;verticalLabelPosition=bottom;verticalAlign=top;align=center;html=1;fontSize=12;fontStyle=0;aspect=fixed;shape=mxgraph.aws4.resourceIcon;resIcon=mxgraph.aws4.fargate;" parent="1" vertex="1">
          <mxGeometry x="991" y="-1519.37" width="78" height="78" as="geometry" />
        </mxCell>
        <mxCell id="mYuxlSG8NZRimMG9Fdhw-31" style="edgeStyle=orthogonalEdgeStyle;rounded=0;orthogonalLoop=1;jettySize=auto;html=1;entryX=0.5;entryY=1;entryDx=0;entryDy=0;entryPerimeter=0;" parent="1" source="mYuxlSG8NZRimMG9Fdhw-28" target="mYuxlSG8NZRimMG9Fdhw-29" edge="1">
          <mxGeometry relative="1" as="geometry" />
        </mxCell>
        <mxCell id="mYuxlSG8NZRimMG9Fdhw-32" style="edgeStyle=orthogonalEdgeStyle;rounded=0;orthogonalLoop=1;jettySize=auto;html=1;entryX=0.5;entryY=0;entryDx=0;entryDy=0;entryPerimeter=0;" parent="1" source="mYuxlSG8NZRimMG9Fdhw-28" target="mYuxlSG8NZRimMG9Fdhw-30" edge="1">
          <mxGeometry relative="1" as="geometry" />
        </mxCell>
        <mxCell id="mYuxlSG8NZRimMG9Fdhw-35" style="edgeStyle=orthogonalEdgeStyle;rounded=0;orthogonalLoop=1;jettySize=auto;html=1;entryX=0;entryY=0.5;entryDx=0;entryDy=0;entryPerimeter=0;" parent="1" target="mYuxlSG8NZRimMG9Fdhw-28" edge="1">
          <mxGeometry relative="1" as="geometry">
            <mxPoint x="881" y="-1702" as="sourcePoint" />
          </mxGeometry>
        </mxCell>
        <mxCell id="mYuxlSG8NZRimMG9Fdhw-39" style="edgeStyle=orthogonalEdgeStyle;rounded=0;orthogonalLoop=1;jettySize=auto;html=1;entryX=0.5;entryY=1;entryDx=0;entryDy=0;entryPerimeter=0;dashed=1;fillColor=#f5f5f5;strokeColor=#666666;" parent="1" source="mYuxlSG8NZRimMG9Fdhw-29" target="mYuxlSG8NZRimMG9Fdhw-4" edge="1">
          <mxGeometry relative="1" as="geometry" />
        </mxCell>
        <mxCell id="mYuxlSG8NZRimMG9Fdhw-42" style="edgeStyle=orthogonalEdgeStyle;rounded=0;orthogonalLoop=1;jettySize=auto;html=1;fillColor=#f5f5f5;strokeColor=#666666;dashed=1;" parent="1" source="mYuxlSG8NZRimMG9Fdhw-40" target="mYuxlSG8NZRimMG9Fdhw-30" edge="1">
          <mxGeometry relative="1" as="geometry" />
        </mxCell>
        <mxCell id="mYuxlSG8NZRimMG9Fdhw-46" style="edgeStyle=orthogonalEdgeStyle;rounded=0;orthogonalLoop=1;jettySize=auto;html=1;entryX=0.5;entryY=1;entryDx=0;entryDy=0;entryPerimeter=0;" parent="1" source="mYuxlSG8NZRimMG9Fdhw-45" target="mYuxlSG8NZRimMG9Fdhw-40" edge="1">
          <mxGeometry relative="1" as="geometry">
            <Array as="points">
              <mxPoint x="83" y="-1227" />
              <mxPoint x="845" y="-1227" />
              <mxPoint x="845" y="-1262" />
            </Array>
          </mxGeometry>
        </mxCell>
        <mxCell id="mYuxlSG8NZRimMG9Fdhw-45" value="Github Action Pipeline" style="dashed=0;outlineConnect=0;html=1;align=center;labelPosition=center;verticalLabelPosition=bottom;verticalAlign=top;shape=mxgraph.weblogos.github" parent="1" vertex="1">
          <mxGeometry x="46" y="-1352" width="75" height="75" as="geometry" />
        </mxCell>
        <mxCell id="mYuxlSG8NZRimMG9Fdhw-3" value="Access/Flow Logs" style="outlineConnect=0;dashed=0;verticalLabelPosition=bottom;verticalAlign=top;align=center;html=1;shape=mxgraph.aws3.bucket_with_objects;fillColor=#E05243;gradientColor=none;" parent="1" vertex="1">
          <mxGeometry x="656" y="-2213.5" width="60" height="61.5" as="geometry" />
        </mxCell>
        <mxCell id="mYuxlSG8NZRimMG9Fdhw-4" value="Application Logs" style="outlineConnect=0;dashed=0;verticalLabelPosition=bottom;verticalAlign=top;align=center;html=1;shape=mxgraph.aws3.bucket_with_objects;fillColor=#E05243;gradientColor=none;" parent="1" vertex="1">
          <mxGeometry x="1000" y="-2217" width="60" height="61.5" as="geometry" />
        </mxCell>
        <mxCell id="mYuxlSG8NZRimMG9Fdhw-16" style="edgeStyle=orthogonalEdgeStyle;rounded=0;orthogonalLoop=1;jettySize=auto;html=1;" parent="1" source="mYuxlSG8NZRimMG9Fdhw-6" target="mYuxlSG8NZRimMG9Fdhw-9" edge="1">
          <mxGeometry relative="1" as="geometry" />
        </mxCell>
        <mxCell id="mYuxlSG8NZRimMG9Fdhw-6" value="Application&amp;nbsp;&lt;div&gt;Load Balancer&lt;/div&gt;" style="outlineConnect=0;dashed=0;verticalLabelPosition=bottom;verticalAlign=top;align=center;html=1;shape=mxgraph.aws3.application_load_balancer;fillColor=#F58534;gradientColor=none;" parent="1" vertex="1">
          <mxGeometry x="505" y="-1739" width="69" height="72" as="geometry" />
        </mxCell>
        <mxCell id="mYuxlSG8NZRimMG9Fdhw-9" value="ECS&lt;br&gt;Dynamic Web Content" style="sketch=0;points=[[0,0,0],[0.25,0,0],[0.5,0,0],[0.75,0,0],[1,0,0],[0,1,0],[0.25,1,0],[0.5,1,0],[0.75,1,0],[1,1,0],[0,0.25,0],[0,0.5,0],[0,0.75,0],[1,0.25,0],[1,0.5,0],[1,0.75,0]];outlineConnect=0;fontColor=#232F3E;fillColor=#ED7100;strokeColor=#ffffff;dashed=0;verticalLabelPosition=bottom;verticalAlign=top;align=center;html=1;fontSize=12;fontStyle=0;aspect=fixed;shape=mxgraph.aws4.resourceIcon;resIcon=mxgraph.aws4.ecs;" parent="1" vertex="1">
          <mxGeometry x="638" y="-1742" width="78" height="78" as="geometry" />
        </mxCell>
        <mxCell id="mYuxlSG8NZRimMG9Fdhw-38" style="edgeStyle=orthogonalEdgeStyle;rounded=0;orthogonalLoop=1;jettySize=auto;html=1;entryX=0.5;entryY=1;entryDx=0;entryDy=0;entryPerimeter=0;dashed=1;fillColor=#f5f5f5;strokeColor=#666666;" parent="1" source="mYuxlSG8NZRimMG9Fdhw-10" target="mYuxlSG8NZRimMG9Fdhw-4" edge="1">
          <mxGeometry relative="1" as="geometry">
            <Array as="points">
              <mxPoint x="727" y="-2040" />
              <mxPoint x="1030" y="-2040" />
            </Array>
          </mxGeometry>
        </mxCell>
        <mxCell id="mYuxlSG8NZRimMG9Fdhw-10" value="Fargate Task" style="sketch=0;points=[[0,0,0],[0.25,0,0],[0.5,0,0],[0.75,0,0],[1,0,0],[0,1,0],[0.25,1,0],[0.5,1,0],[0.75,1,0],[1,1,0],[0,0.25,0],[0,0.5,0],[0,0.75,0],[1,0.25,0],[1,0.5,0],[1,0.75,0]];outlineConnect=0;fontColor=#232F3E;fillColor=#ED7100;strokeColor=#ffffff;dashed=0;verticalLabelPosition=bottom;verticalAlign=top;align=center;html=1;fontSize=12;fontStyle=0;aspect=fixed;shape=mxgraph.aws4.resourceIcon;resIcon=mxgraph.aws4.fargate;" parent="1" vertex="1">
          <mxGeometry x="638" y="-1939" width="78" height="78" as="geometry" />
        </mxCell>
        <mxCell id="mYuxlSG8NZRimMG9Fdhw-11" value="Fargate Task" style="sketch=0;points=[[0,0,0],[0.25,0,0],[0.5,0,0],[0.75,0,0],[1,0,0],[0,1,0],[0.25,1,0],[0.5,1,0],[0.75,1,0],[1,1,0],[0,0.25,0],[0,0.5,0],[0,0.75,0],[1,0.25,0],[1,0.5,0],[1,0.75,0]];outlineConnect=0;fontColor=#232F3E;fillColor=#ED7100;strokeColor=#ffffff;dashed=0;verticalLabelPosition=bottom;verticalAlign=top;align=center;html=1;fontSize=12;fontStyle=0;aspect=fixed;shape=mxgraph.aws4.resourceIcon;resIcon=mxgraph.aws4.fargate;" parent="1" vertex="1">
          <mxGeometry x="638" y="-1520.37" width="78" height="78" as="geometry" />
        </mxCell>
        <mxCell id="mYuxlSG8NZRimMG9Fdhw-17" style="edgeStyle=orthogonalEdgeStyle;rounded=0;orthogonalLoop=1;jettySize=auto;html=1;entryX=0.5;entryY=1;entryDx=0;entryDy=0;entryPerimeter=0;" parent="1" source="mYuxlSG8NZRimMG9Fdhw-9" target="mYuxlSG8NZRimMG9Fdhw-10" edge="1">
          <mxGeometry relative="1" as="geometry" />
        </mxCell>
        <mxCell id="mYuxlSG8NZRimMG9Fdhw-18" style="edgeStyle=orthogonalEdgeStyle;rounded=0;orthogonalLoop=1;jettySize=auto;html=1;entryX=0.5;entryY=0;entryDx=0;entryDy=0;entryPerimeter=0;" parent="1" source="mYuxlSG8NZRimMG9Fdhw-9" target="mYuxlSG8NZRimMG9Fdhw-11" edge="1">
          <mxGeometry relative="1" as="geometry" />
        </mxCell>
        <mxCell id="mYuxlSG8NZRimMG9Fdhw-36" style="edgeStyle=orthogonalEdgeStyle;rounded=0;orthogonalLoop=1;jettySize=auto;html=1;entryX=0.06;entryY=0.5;entryDx=0;entryDy=0;entryPerimeter=0;dashed=1;fillColor=#f5f5f5;strokeColor=#666666;exitX=0.5;exitY=0;exitDx=0;exitDy=0;exitPerimeter=0;" parent="1" source="mYuxlSG8NZRimMG9Fdhw-6" target="mYuxlSG8NZRimMG9Fdhw-3" edge="1">
          <mxGeometry relative="1" as="geometry">
            <Array as="points">
              <mxPoint x="539" y="-2183" />
            </Array>
          </mxGeometry>
        </mxCell>
        <mxCell id="mYuxlSG8NZRimMG9Fdhw-44" style="edgeStyle=orthogonalEdgeStyle;rounded=0;orthogonalLoop=1;jettySize=auto;html=1;fillColor=#f5f5f5;strokeColor=#666666;dashed=1;" parent="1" source="mYuxlSG8NZRimMG9Fdhw-40" target="mYuxlSG8NZRimMG9Fdhw-11" edge="1">
          <mxGeometry relative="1" as="geometry" />
        </mxCell>
        <mxCell id="mYuxlSG8NZRimMG9Fdhw-40" value="ECR Registry" style="sketch=0;points=[[0,0,0],[0.25,0,0],[0.5,0,0],[0.75,0,0],[1,0,0],[0,1,0],[0.25,1,0],[0.5,1,0],[0.75,1,0],[1,1,0],[0,0.25,0],[0,0.5,0],[0,0.75,0],[1,0.25,0],[1,0.5,0],[1,0.75,0]];outlineConnect=0;fontColor=#232F3E;fillColor=#ED7100;strokeColor=#ffffff;dashed=0;verticalLabelPosition=bottom;verticalAlign=top;align=center;html=1;fontSize=12;fontStyle=0;aspect=fixed;shape=mxgraph.aws4.resourceIcon;resIcon=mxgraph.aws4.ecr;" parent="1" vertex="1">
          <mxGeometry x="802.5" y="-1340" width="78" height="78" as="geometry" />
        </mxCell>
        <mxCell id="7wtdvBPAreZbaL_yd84X-47" style="edgeStyle=orthogonalEdgeStyle;rounded=0;orthogonalLoop=1;jettySize=auto;html=1;" edge="1" parent="1" source="mYuxlSG8NZRimMG9Fdhw-47" target="7wtdvBPAreZbaL_yd84X-46">
          <mxGeometry relative="1" as="geometry" />
        </mxCell>
        <mxCell id="mYuxlSG8NZRimMG9Fdhw-47" value="Cloudwatch Observability" style="sketch=0;points=[[0,0,0],[0.25,0,0],[0.5,0,0],[0.75,0,0],[1,0,0],[0,1,0],[0.25,1,0],[0.5,1,0],[0.75,1,0],[1,1,0],[0,0.25,0],[0,0.5,0],[0,0.75,0],[1,0.25,0],[1,0.5,0],[1,0.75,0]];points=[[0,0,0],[0.25,0,0],[0.5,0,0],[0.75,0,0],[1,0,0],[0,1,0],[0.25,1,0],[0.5,1,0],[0.75,1,0],[1,1,0],[0,0.25,0],[0,0.5,0],[0,0.75,0],[1,0.25,0],[1,0.5,0],[1,0.75,0]];outlineConnect=0;fontColor=#232F3E;fillColor=#E7157B;strokeColor=#ffffff;dashed=0;verticalLabelPosition=bottom;verticalAlign=top;align=center;html=1;fontSize=12;fontStyle=0;aspect=fixed;shape=mxgraph.aws4.resourceIcon;resIcon=mxgraph.aws4.cloudwatch_2;" parent="1" vertex="1">
          <mxGeometry x="1218.5" y="-2216.5" width="61" height="61" as="geometry" />
        </mxCell>
        <mxCell id="mYuxlSG8NZRimMG9Fdhw-48" value="Subnet" style="sketch=0;outlineConnect=0;gradientColor=none;html=1;whiteSpace=wrap;fontSize=12;fontStyle=0;shape=mxgraph.aws4.group;grIcon=mxgraph.aws4.group_subnet;strokeColor=#879196;fillColor=none;verticalAlign=top;align=left;spacingLeft=30;fontColor=#879196;dashed=0;" parent="1" vertex="1">
          <mxGeometry x="612" y="-1989" width="128" height="173" as="geometry" />
        </mxCell>
        <mxCell id="mYuxlSG8NZRimMG9Fdhw-54" value="Web Tier" style="swimlane;whiteSpace=wrap;html=1;glass=1;strokeColor=#82b366;strokeWidth=3;fillColor=#d5e8d4;" parent="1" vertex="1">
          <mxGeometry x="589" y="-2090" width="166" height="750" as="geometry" />
        </mxCell>
        <mxCell id="mYuxlSG8NZRimMG9Fdhw-55" value="Application Tier" style="swimlane;whiteSpace=wrap;html=1;fillColor=#fff2cc;strokeColor=#d6b656;strokeWidth=4;" parent="1" vertex="1">
          <mxGeometry x="935" y="-2090" width="195" height="750" as="geometry" />
        </mxCell>
        <mxCell id="mYuxlSG8NZRimMG9Fdhw-88" value="Subnet" style="sketch=0;outlineConnect=0;gradientColor=none;html=1;whiteSpace=wrap;fontSize=12;fontStyle=0;shape=mxgraph.aws4.group;grIcon=mxgraph.aws4.group_subnet;strokeColor=#879196;fillColor=none;verticalAlign=top;align=left;spacingLeft=30;fontColor=#879196;dashed=0;" parent="mYuxlSG8NZRimMG9Fdhw-55" vertex="1">
          <mxGeometry x="37" y="101" width="128" height="173" as="geometry" />
        </mxCell>
        <mxCell id="mYuxlSG8NZRimMG9Fdhw-89" value="Subnet" style="sketch=0;outlineConnect=0;gradientColor=none;html=1;whiteSpace=wrap;fontSize=12;fontStyle=0;shape=mxgraph.aws4.group;grIcon=mxgraph.aws4.group_subnet;strokeColor=#879196;fillColor=none;verticalAlign=top;align=left;spacingLeft=30;fontColor=#879196;dashed=0;" parent="mYuxlSG8NZRimMG9Fdhw-55" vertex="1">
          <mxGeometry x="37" y="512" width="128" height="173" as="geometry" />
        </mxCell>
        <mxCell id="mYuxlSG8NZRimMG9Fdhw-56" value="Database Tier" style="swimlane;whiteSpace=wrap;html=1;fillColor=#ffe6cc;strokeColor=#FFB366;strokeWidth=4;" parent="1" vertex="1">
          <mxGeometry x="1151.5" y="-2090" width="195" height="750" as="geometry" />
        </mxCell>
        <mxCell id="mYuxlSG8NZRimMG9Fdhw-67" value="Replica" style="sketch=0;points=[[0,0,0],[0.25,0,0],[0.5,0,0],[0.75,0,0],[1,0,0],[0,1,0],[0.25,1,0],[0.5,1,0],[0.75,1,0],[1,1,0],[0,0.25,0],[0,0.5,0],[0,0.75,0],[1,0.25,0],[1,0.5,0],[1,0.75,0]];outlineConnect=0;fontColor=#232F3E;fillColor=#C925D1;strokeColor=#ffffff;dashed=0;verticalLabelPosition=bottom;verticalAlign=top;align=center;html=1;fontSize=12;fontStyle=0;aspect=fixed;shape=mxgraph.aws4.resourceIcon;resIcon=mxgraph.aws4.aurora;" parent="mYuxlSG8NZRimMG9Fdhw-56" vertex="1">
          <mxGeometry x="58.5" y="570.6300000000001" width="78" height="78" as="geometry" />
        </mxCell>
        <mxCell id="mYuxlSG8NZRimMG9Fdhw-90" value="Subnet" style="sketch=0;outlineConnect=0;gradientColor=none;html=1;whiteSpace=wrap;fontSize=12;fontStyle=0;shape=mxgraph.aws4.group;grIcon=mxgraph.aws4.group_subnet;strokeColor=#879196;fillColor=none;verticalAlign=top;align=left;spacingLeft=30;fontColor=#879196;dashed=0;" parent="mYuxlSG8NZRimMG9Fdhw-56" vertex="1">
          <mxGeometry x="33.5" y="103.5" width="128" height="173" as="geometry" />
        </mxCell>
        <mxCell id="mYuxlSG8NZRimMG9Fdhw-63" style="edgeStyle=orthogonalEdgeStyle;rounded=0;orthogonalLoop=1;jettySize=auto;html=1;entryX=0.5;entryY=1;entryDx=0;entryDy=0;entryPerimeter=0;dashed=1;" parent="1" source="mYuxlSG8NZRimMG9Fdhw-56" target="mYuxlSG8NZRimMG9Fdhw-47" edge="1">
          <mxGeometry relative="1" as="geometry" />
        </mxCell>
        <mxCell id="mYuxlSG8NZRimMG9Fdhw-64" style="edgeStyle=orthogonalEdgeStyle;rounded=0;orthogonalLoop=1;jettySize=auto;html=1;entryX=0.5;entryY=1;entryDx=0;entryDy=0;entryPerimeter=0;dashed=1;" parent="1" source="mYuxlSG8NZRimMG9Fdhw-55" target="mYuxlSG8NZRimMG9Fdhw-47" edge="1">
          <mxGeometry relative="1" as="geometry">
            <Array as="points">
              <mxPoint x="1033" y="-2110" />
              <mxPoint x="1249" y="-2110" />
            </Array>
          </mxGeometry>
        </mxCell>
        <mxCell id="mYuxlSG8NZRimMG9Fdhw-65" style="edgeStyle=orthogonalEdgeStyle;rounded=0;orthogonalLoop=1;jettySize=auto;html=1;entryX=0.5;entryY=1;entryDx=0;entryDy=0;entryPerimeter=0;dashed=1;exitX=0.5;exitY=0;exitDx=0;exitDy=0;" parent="1" source="mYuxlSG8NZRimMG9Fdhw-54" target="mYuxlSG8NZRimMG9Fdhw-47" edge="1">
          <mxGeometry relative="1" as="geometry">
            <Array as="points">
              <mxPoint x="672" y="-2110" />
              <mxPoint x="1249" y="-2110" />
            </Array>
          </mxGeometry>
        </mxCell>
        <mxCell id="mYuxlSG8NZRimMG9Fdhw-66" value="DB" style="sketch=0;points=[[0,0,0],[0.25,0,0],[0.5,0,0],[0.75,0,0],[1,0,0],[0,1,0],[0.25,1,0],[0.5,1,0],[0.75,1,0],[1,1,0],[0,0.25,0],[0,0.5,0],[0,0.75,0],[1,0.25,0],[1,0.5,0],[1,0.75,0]];outlineConnect=0;fontColor=#232F3E;fillColor=#C925D1;strokeColor=#ffffff;dashed=0;verticalLabelPosition=bottom;verticalAlign=top;align=center;html=1;fontSize=12;fontStyle=0;aspect=fixed;shape=mxgraph.aws4.resourceIcon;resIcon=mxgraph.aws4.aurora;" parent="1" vertex="1">
          <mxGeometry x="1210" y="-1939" width="78" height="78" as="geometry" />
        </mxCell>
        <mxCell id="mYuxlSG8NZRimMG9Fdhw-68" value="Aurora Cluster" style="sketch=0;points=[[0,0,0],[0.25,0,0],[0.5,0,0],[0.75,0,0],[1,0,0],[0,1,0],[0.25,1,0],[0.5,1,0],[0.75,1,0],[1,1,0],[0,0.25,0],[0,0.5,0],[0,0.75,0],[1,0.25,0],[1,0.5,0],[1,0.75,0]];outlineConnect=0;fontColor=#232F3E;fillColor=#C925D1;strokeColor=#ffffff;dashed=0;verticalLabelPosition=bottom;verticalAlign=top;align=center;html=1;fontSize=12;fontStyle=0;aspect=fixed;shape=mxgraph.aws4.resourceIcon;resIcon=mxgraph.aws4.aurora;" parent="1" vertex="1">
          <mxGeometry x="1210" y="-1745" width="78" height="78" as="geometry" />
        </mxCell>
        <mxCell id="mYuxlSG8NZRimMG9Fdhw-69" style="edgeStyle=orthogonalEdgeStyle;rounded=0;orthogonalLoop=1;jettySize=auto;html=1;entryX=0.5;entryY=0;entryDx=0;entryDy=0;entryPerimeter=0;" parent="1" source="mYuxlSG8NZRimMG9Fdhw-68" target="mYuxlSG8NZRimMG9Fdhw-67" edge="1">
          <mxGeometry relative="1" as="geometry" />
        </mxCell>
        <mxCell id="mYuxlSG8NZRimMG9Fdhw-70" style="edgeStyle=orthogonalEdgeStyle;rounded=0;orthogonalLoop=1;jettySize=auto;html=1;entryX=0.5;entryY=1;entryDx=0;entryDy=0;entryPerimeter=0;" parent="1" source="mYuxlSG8NZRimMG9Fdhw-68" target="mYuxlSG8NZRimMG9Fdhw-66" edge="1">
          <mxGeometry relative="1" as="geometry" />
        </mxCell>
        <mxCell id="wpQdeSMhPJyux8SGI22e-8" style="edgeStyle=orthogonalEdgeStyle;rounded=0;orthogonalLoop=1;jettySize=auto;html=1;" parent="1" target="mYuxlSG8NZRimMG9Fdhw-6" edge="1">
          <mxGeometry relative="1" as="geometry">
            <mxPoint x="425" y="-1703" as="sourcePoint" />
          </mxGeometry>
        </mxCell>
        <mxCell id="mYuxlSG8NZRimMG9Fdhw-75" value="Cloudfront (static assets)" style="sketch=0;points=[[0,0,0],[0.25,0,0],[0.5,0,0],[0.75,0,0],[1,0,0],[0,1,0],[0.25,1,0],[0.5,1,0],[0.75,1,0],[1,1,0],[0,0.25,0],[0,0.5,0],[0,0.75,0],[1,0.25,0],[1,0.5,0],[1,0.75,0]];outlineConnect=0;fontColor=#232F3E;fillColor=#8C4FFF;strokeColor=#ffffff;dashed=0;verticalLabelPosition=bottom;verticalAlign=top;align=center;html=1;fontSize=12;fontStyle=0;aspect=fixed;shape=mxgraph.aws4.resourceIcon;resIcon=mxgraph.aws4.cloudfront;" parent="1" vertex="1">
          <mxGeometry x="222" y="-1740" width="78" height="78" as="geometry" />
        </mxCell>
        <mxCell id="mYuxlSG8NZRimMG9Fdhw-77" value="S3 Static Assets" style="outlineConnect=0;dashed=0;verticalLabelPosition=bottom;verticalAlign=top;align=center;html=1;shape=mxgraph.aws3.bucket_with_objects;fillColor=#E05243;gradientColor=none;" parent="1" vertex="1">
          <mxGeometry x="231" y="-1511.12" width="60" height="61.5" as="geometry" />
        </mxCell>
        <mxCell id="mYuxlSG8NZRimMG9Fdhw-87" value="Subnet" style="sketch=0;outlineConnect=0;gradientColor=none;html=1;whiteSpace=wrap;fontSize=12;fontStyle=0;shape=mxgraph.aws4.group;grIcon=mxgraph.aws4.group_subnet;strokeColor=#879196;fillColor=none;verticalAlign=top;align=left;spacingLeft=30;fontColor=#879196;dashed=0;" parent="1" vertex="1">
          <mxGeometry x="620" y="-1578" width="128" height="173" as="geometry" />
        </mxCell>
        <mxCell id="mYuxlSG8NZRimMG9Fdhw-91" value="Subnet" style="sketch=0;outlineConnect=0;gradientColor=none;html=1;whiteSpace=wrap;fontSize=12;fontStyle=0;shape=mxgraph.aws4.group;grIcon=mxgraph.aws4.group_subnet;strokeColor=#879196;fillColor=none;verticalAlign=top;align=left;spacingLeft=30;fontColor=#879196;dashed=0;" parent="1" vertex="1">
          <mxGeometry x="1187" y="-1578" width="128" height="173" as="geometry" />
        </mxCell>
        <mxCell id="7wtdvBPAreZbaL_yd84X-6" value="AWS Backup&lt;div&gt;&amp;nbsp;&amp;amp; Restore&lt;/div&gt;" style="sketch=0;points=[[0,0,0],[0.25,0,0],[0.5,0,0],[0.75,0,0],[1,0,0],[0,1,0],[0.25,1,0],[0.5,1,0],[0.75,1,0],[1,1,0],[0,0.25,0],[0,0.5,0],[0,0.75,0],[1,0.25,0],[1,0.5,0],[1,0.75,0]];outlineConnect=0;fontColor=#232F3E;fillColor=#7AA116;strokeColor=#ffffff;dashed=0;verticalLabelPosition=bottom;verticalAlign=top;align=center;html=1;fontSize=12;fontStyle=0;aspect=fixed;shape=mxgraph.aws4.resourceIcon;resIcon=mxgraph.aws4.backup;" vertex="1" parent="1">
          <mxGeometry x="1397" y="-1745" width="78" height="78" as="geometry" />
        </mxCell>
        <mxCell id="7wtdvBPAreZbaL_yd84X-7" style="edgeStyle=orthogonalEdgeStyle;rounded=0;orthogonalLoop=1;jettySize=auto;html=1;entryX=1;entryY=0.5;entryDx=0;entryDy=0;entryPerimeter=0;startArrow=classic;startFill=1;" edge="1" parent="1" source="7wtdvBPAreZbaL_yd84X-6" target="mYuxlSG8NZRimMG9Fdhw-68">
          <mxGeometry relative="1" as="geometry" />
        </mxCell>
        <mxCell id="7wtdvBPAreZbaL_yd84X-18" value="" style="edgeStyle=orthogonalEdgeStyle;rounded=0;orthogonalLoop=1;jettySize=auto;html=1;entryX=0;entryY=0.5;entryDx=0;entryDy=0;entryPerimeter=0;" edge="1" parent="1" source="mYuxlSG8NZRimMG9Fdhw-9" target="7wtdvBPAreZbaL_yd84X-33">
          <mxGeometry relative="1" as="geometry">
            <mxPoint x="716" y="-1703" as="sourcePoint" />
            <mxPoint x="803" y="-1702" as="targetPoint" />
          </mxGeometry>
        </mxCell>
        <mxCell id="7wtdvBPAreZbaL_yd84X-19" value="API Gateway" style="sketch=0;points=[[0,0,0],[0.25,0,0],[0.5,0,0],[0.75,0,0],[1,0,0],[0,1,0],[0.25,1,0],[0.5,1,0],[0.75,1,0],[1,1,0],[0,0.25,0],[0,0.5,0],[0,0.75,0],[1,0.25,0],[1,0.5,0],[1,0.75,0]];outlineConnect=0;fontColor=#232F3E;fillColor=#E7157B;strokeColor=#ffffff;dashed=0;verticalLabelPosition=bottom;verticalAlign=top;align=center;html=1;fontSize=12;fontStyle=0;aspect=fixed;shape=mxgraph.aws4.resourceIcon;resIcon=mxgraph.aws4.api_gateway;" vertex="1" parent="1">
          <mxGeometry x="353" y="-1741" width="78" height="78" as="geometry" />
        </mxCell>
        <mxCell id="7wtdvBPAreZbaL_yd84X-20" style="edgeStyle=orthogonalEdgeStyle;rounded=0;orthogonalLoop=1;jettySize=auto;html=1;entryX=0.5;entryY=0;entryDx=0;entryDy=0;entryPerimeter=0;" edge="1" parent="1" source="mYuxlSG8NZRimMG9Fdhw-75" target="mYuxlSG8NZRimMG9Fdhw-77">
          <mxGeometry relative="1" as="geometry" />
        </mxCell>
        <mxCell id="7wtdvBPAreZbaL_yd84X-21" value="Cognito" style="sketch=0;points=[[0,0,0],[0.25,0,0],[0.5,0,0],[0.75,0,0],[1,0,0],[0,1,0],[0.25,1,0],[0.5,1,0],[0.75,1,0],[1,1,0],[0,0.25,0],[0,0.5,0],[0,0.75,0],[1,0.25,0],[1,0.5,0],[1,0.75,0]];outlineConnect=0;fontColor=#232F3E;fillColor=#DD344C;strokeColor=#ffffff;dashed=0;verticalLabelPosition=bottom;verticalAlign=top;align=center;html=1;fontSize=12;fontStyle=0;aspect=fixed;shape=mxgraph.aws4.resourceIcon;resIcon=mxgraph.aws4.cognito;" vertex="1" parent="1">
          <mxGeometry x="222" y="-1897" width="78" height="78" as="geometry" />
        </mxCell>
        <mxCell id="7wtdvBPAreZbaL_yd84X-22" value="User Access" style="sketch=0;outlineConnect=0;fontColor=#232F3E;gradientColor=none;fillColor=#232F3D;strokeColor=none;dashed=0;verticalLabelPosition=bottom;verticalAlign=top;align=center;html=1;fontSize=12;fontStyle=0;aspect=fixed;pointerEvents=1;shape=mxgraph.aws4.user;" vertex="1" parent="1">
          <mxGeometry x="46" y="-2041" width="78" height="78" as="geometry" />
        </mxCell>
        <mxCell id="7wtdvBPAreZbaL_yd84X-28" value="R53 Hostname" style="sketch=0;points=[[0,0,0],[0.25,0,0],[0.5,0,0],[0.75,0,0],[1,0,0],[0,1,0],[0.25,1,0],[0.5,1,0],[0.75,1,0],[1,1,0],[0,0.25,0],[0,0.5,0],[0,0.75,0],[1,0.25,0],[1,0.5,0],[1,0.75,0]];outlineConnect=0;fontColor=#232F3E;fillColor=#8C4FFF;strokeColor=#ffffff;dashed=0;verticalLabelPosition=bottom;verticalAlign=top;align=center;html=1;fontSize=12;fontStyle=0;aspect=fixed;shape=mxgraph.aws4.resourceIcon;resIcon=mxgraph.aws4.route_53;" vertex="1" parent="1">
          <mxGeometry x="222" y="-2041" width="78" height="78" as="geometry" />
        </mxCell>
        <mxCell id="7wtdvBPAreZbaL_yd84X-29" style="edgeStyle=orthogonalEdgeStyle;rounded=0;orthogonalLoop=1;jettySize=auto;html=1;entryX=0;entryY=0.5;entryDx=0;entryDy=0;entryPerimeter=0;" edge="1" parent="1" source="7wtdvBPAreZbaL_yd84X-22" target="7wtdvBPAreZbaL_yd84X-28">
          <mxGeometry relative="1" as="geometry" />
        </mxCell>
        <mxCell id="7wtdvBPAreZbaL_yd84X-33" value="Internal&amp;nbsp;&lt;div&gt;Load Balancer&lt;/div&gt;" style="outlineConnect=0;dashed=0;verticalLabelPosition=bottom;verticalAlign=top;align=center;html=1;shape=mxgraph.aws3.application_load_balancer;fillColor=#F58534;gradientColor=none;" vertex="1" parent="1">
          <mxGeometry x="807" y="-1739" width="69" height="72" as="geometry" />
        </mxCell>
        <mxCell id="7wtdvBPAreZbaL_yd84X-36" style="edgeStyle=orthogonalEdgeStyle;rounded=0;orthogonalLoop=1;jettySize=auto;html=1;entryX=0.5;entryY=0;entryDx=0;entryDy=0;entryPerimeter=0;" edge="1" parent="1" source="7wtdvBPAreZbaL_yd84X-21" target="mYuxlSG8NZRimMG9Fdhw-75">
          <mxGeometry relative="1" as="geometry" />
        </mxCell>
        <mxCell id="7wtdvBPAreZbaL_yd84X-37" style="edgeStyle=orthogonalEdgeStyle;rounded=0;orthogonalLoop=1;jettySize=auto;html=1;entryX=0;entryY=0.5;entryDx=0;entryDy=0;entryPerimeter=0;" edge="1" parent="1" source="mYuxlSG8NZRimMG9Fdhw-75" target="7wtdvBPAreZbaL_yd84X-19">
          <mxGeometry relative="1" as="geometry" />
        </mxCell>
        <mxCell id="7wtdvBPAreZbaL_yd84X-38" style="edgeStyle=orthogonalEdgeStyle;rounded=0;orthogonalLoop=1;jettySize=auto;html=1;entryX=0.5;entryY=0;entryDx=0;entryDy=0;entryPerimeter=0;" edge="1" parent="1" source="7wtdvBPAreZbaL_yd84X-28" target="7wtdvBPAreZbaL_yd84X-21">
          <mxGeometry relative="1" as="geometry" />
        </mxCell>
        <mxCell id="7wtdvBPAreZbaL_yd84X-40" style="edgeStyle=orthogonalEdgeStyle;rounded=0;orthogonalLoop=1;jettySize=auto;html=1;entryX=0.94;entryY=0.5;entryDx=0;entryDy=0;entryPerimeter=0;dashed=1;" edge="1" parent="1" source="7wtdvBPAreZbaL_yd84X-33" target="mYuxlSG8NZRimMG9Fdhw-3">
          <mxGeometry relative="1" as="geometry">
            <Array as="points">
              <mxPoint x="841" y="-2183" />
            </Array>
          </mxGeometry>
        </mxCell>
        <mxCell id="7wtdvBPAreZbaL_yd84X-41" value="Internet GW" style="sketch=0;outlineConnect=0;fontColor=#232F3E;gradientColor=none;fillColor=#8C4FFF;strokeColor=none;dashed=0;verticalLabelPosition=bottom;verticalAlign=top;align=center;html=1;fontSize=12;fontStyle=0;aspect=fixed;pointerEvents=1;shape=mxgraph.aws4.internet_gateway;" vertex="1" parent="1">
          <mxGeometry x="140" y="-2057" width="49" height="49" as="geometry" />
        </mxCell>
        <mxCell id="7wtdvBPAreZbaL_yd84X-42" value="SIEM&amp;nbsp;&lt;div&gt;e.g Splunk&lt;/div&gt;" style="verticalLabelPosition=top;sketch=0;html=1;fillColor=#A153A0;strokeColor=#ffffff;verticalAlign=bottom;align=center;points=[[0,0.5,0],[0.125,0.25,0],[0.25,0,0],[0.5,0,0],[0.75,0,0],[0.875,0.25,0],[1,0.5,0],[0.875,0.75,0],[0.75,1,0],[0.5,1,0],[0.125,0.75,0]];pointerEvents=1;shape=mxgraph.cisco_safe.compositeIcon;bgIcon=mxgraph.cisco_safe.design.blank_device;resIcon=mxgraph.cisco_safe.design.siem;labelPosition=center;" vertex="1" parent="1">
          <mxGeometry x="846" y="-2298" width="50" height="45" as="geometry" />
        </mxCell>
        <mxCell id="7wtdvBPAreZbaL_yd84X-43" style="edgeStyle=orthogonalEdgeStyle;rounded=0;orthogonalLoop=1;jettySize=auto;html=1;entryX=0;entryY=0.5;entryDx=0;entryDy=0;entryPerimeter=0;" edge="1" parent="1" source="mYuxlSG8NZRimMG9Fdhw-3" target="7wtdvBPAreZbaL_yd84X-42">
          <mxGeometry relative="1" as="geometry">
            <Array as="points">
              <mxPoint x="686" y="-2275" />
            </Array>
          </mxGeometry>
        </mxCell>
        <mxCell id="7wtdvBPAreZbaL_yd84X-44" style="edgeStyle=orthogonalEdgeStyle;rounded=0;orthogonalLoop=1;jettySize=auto;html=1;entryX=1;entryY=0.5;entryDx=0;entryDy=0;entryPerimeter=0;" edge="1" parent="1" source="mYuxlSG8NZRimMG9Fdhw-4" target="7wtdvBPAreZbaL_yd84X-42">
          <mxGeometry relative="1" as="geometry">
            <Array as="points">
              <mxPoint x="1029" y="-2275" />
            </Array>
          </mxGeometry>
        </mxCell>
        <mxCell id="7wtdvBPAreZbaL_yd84X-46" value="Alerting Mechanism&lt;div&gt;e.g OpsGenie&lt;/div&gt;" style="sketch=0;outlineConnect=0;fontColor=#232F3E;gradientColor=none;fillColor=#232F3D;strokeColor=none;dashed=0;verticalLabelPosition=top;verticalAlign=bottom;align=center;html=1;fontSize=12;fontStyle=0;aspect=fixed;pointerEvents=1;shape=mxgraph.aws4.alert;labelPosition=center;" vertex="1" parent="1">
          <mxGeometry x="1221.87" y="-2300" width="54.26" height="48" as="geometry" />
        </mxCell>
      </root>
    </mxGraphModel>
  </diagram>
</mxfile>
